<svg width="800" height="160" viewBox="0 0 800 160" fill="none" xmlns="http://www.w3.org/2000/svg">
<path d="M8.78671 9.1442H41.8371C44.9325 9.1442 46.63 7.52515 46.63 4.57277C46.63 1.62039 44.9325 0.00134277 41.8371 0.00134277H8.78671C5.69135 0.00134277 3.9939 1.62039 3.9939 4.57277C3.9939 7.52515 5.69135 9.1442 8.78671 9.1442Z" fill="#020202"/>
<path d="M8.78671 21.7139H41.8371C44.9325 21.7139 46.63 20.0949 46.63 17.1425C46.63 14.1901 44.9325 12.571 41.8371 12.571H8.78671C5.69135 12.571 3.9939 14.1901 3.9939 17.1425C3.9939 20.0949 5.69135 21.7139 8.78671 21.7139Z" fill="#020202"/>
<path d="M8.78671 34.286H41.8371C44.9325 34.286 46.63 32.667 46.63 29.7146C46.63 26.7622 44.9325 25.1432 41.8371 25.1432H8.78671C5.69135 25.1432 3.9939 26.7622 3.9939 29.7146C3.9939 32.667 5.69135 34.286 8.78671 34.286Z" fill="#020202"/>
<path d="M8.78671 46.8581H41.8371C44.9325 46.8581 46.63 45.239 46.63 42.2866C46.63 39.3343 44.9325 37.7152 41.8371 37.7152H8.78671C5.69135 37.7152 3.9939 39.3343 3.9939 42.2866C3.9939 45.239 5.69135 46.8581 8.78671 46.8581Z" fill="#020202"/>
<path d="M8.78671 59.4302H51.7223C54.8177 59.4302 56.5151 57.8112 56.5151 54.8588C56.5151 51.9064 54.8177 50.2874 51.7223 50.2874H8.78671C5.69135 50.2874 3.9939 51.9064 3.9939 54.8588C3.9939 57.8112 5.69135 59.4302 8.78671 59.4302Z" fill="#020202"/>
<path d="M37.844 71.9999C40.9393 71.9999 42.6368 70.3809 42.6368 67.4285C42.6368 64.4761 40.9393 62.8571 37.844 62.8571H4.79354C1.69819 62.8571 0.000732422 64.4761 0.000732422 67.4285C0.000732422 70.3809 1.69819 71.9999 4.79354 71.9999H37.844Z" fill="#020202"/>
<path d="M8.78671 84.5721H41.8371C44.9325 84.5721 46.63 82.953 46.63 80.0006C46.63 77.0482 44.9325 75.4292 41.8371 75.4292H8.78671C5.69135 75.4292 3.9939 77.0482 3.9939 80.0006C3.9939 82.953 5.69135 84.5721 8.78671 84.5721Z" fill="#020202"/>
<path d="M51.325 92.5727C51.325 89.6203 49.6276 88.0012 46.5322 88.0012H13.4818C10.3864 88.0012 8.68896 89.6203 8.68896 92.5727C8.68896 95.525 10.3864 97.1441 13.4818 97.1441H46.5322C49.6276 97.1441 51.325 95.525 51.325 92.5727Z" fill="#020202"/>
<path d="M8.78671 109.716H41.8371C44.9325 109.716 46.63 108.097 46.63 105.145C46.63 102.192 44.9325 100.573 41.8371 100.573H8.78671C5.69135 100.573 3.9939 102.192 3.9939 105.145C3.9939 108.097 5.69135 109.716 8.78671 109.716Z" fill="#020202"/>
<path d="M49.0263 117.714C49.0263 114.762 47.3289 113.143 44.2335 113.143H8.78671C5.69135 113.143 3.9939 114.762 3.9939 117.714C3.9939 120.667 5.69135 122.286 8.78671 122.286H44.2335C47.3289 122.286 49.0263 120.667 49.0263 117.714Z" fill="#020202"/>
<path d="M25.3633 130.287C25.3633 133.239 27.0607 134.858 30.1561 134.858H192.113C195.209 134.858 196.906 133.239 196.906 130.287C196.906 127.334 195.209 125.715 192.113 125.715H30.1561C27.0607 125.715 25.3633 127.334 25.3633 130.287Z" fill="#020202"/>
<path d="M161.958 142.859C161.958 139.906 160.261 138.287 157.166 138.287H20.0711C16.9758 138.287 15.2783 139.906 15.2783 142.859C15.2783 145.811 16.9758 147.43 20.0711 147.43H157.166C160.261 147.43 161.958 145.811 161.958 142.859Z" fill="#020202"/>
<path d="M139.193 150.857H38.0445C34.9492 150.857 33.2517 152.476 33.2517 155.428C33.2517 158.381 34.9492 160 38.0445 160H139.193C142.288 160 143.986 158.381 143.986 155.428C143.986 152.476 142.288 150.857 139.193 150.857Z" fill="#020202"/>
<path d="M127.91 117.714C127.91 120.667 129.607 122.286 132.702 122.286H168.149C171.245 122.286 172.942 120.667 172.942 117.714C172.942 114.762 171.245 113.143 168.149 113.143H132.702C129.607 113.143 127.91 114.762 127.91 117.714Z" fill="#020202"/>
<path d="M135.598 9.1442H192.913C196.008 9.1442 197.705 7.52515 197.705 4.57277C197.705 1.62039 196.008 0.00134277 192.913 0.00134277H135.598C132.503 0.00134277 130.806 1.62039 130.806 4.57277C130.806 7.52515 132.503 9.1442 135.598 9.1442Z" fill="#020202"/>
<path d="M135.598 21.7139H203.197C206.292 21.7139 207.99 20.0949 207.99 17.1425C207.99 14.1901 206.292 12.571 203.197 12.571H135.598C132.503 12.571 130.806 14.1901 130.806 17.1425C130.806 20.0949 132.503 21.7139 135.598 21.7139Z" fill="#020202"/>
<path d="M135.598 34.286H168.649C171.744 34.286 173.442 32.667 173.442 29.7146C173.442 26.7622 171.744 25.1432 168.649 25.1432H135.598C132.503 25.1432 130.806 26.7622 130.806 29.7146C130.806 32.667 132.503 34.286 135.598 34.286Z" fill="#020202"/>
<path d="M135.598 46.8581H223.866C226.961 46.8581 228.659 45.239 228.659 42.2866C228.659 39.3343 226.961 37.7152 223.866 37.7152H135.598C132.503 37.7152 130.806 39.3343 130.806 42.2866C130.806 45.239 132.503 46.8581 135.598 46.8581Z" fill="#020202"/>
<path d="M135.598 59.4302H234.151C237.246 59.4302 238.943 57.8112 238.943 54.8588C238.943 51.9064 237.246 50.2874 234.151 50.2874H135.598C132.503 50.2874 130.806 51.9064 130.806 54.8588C130.806 57.8112 132.503 59.4302 135.598 59.4302Z" fill="#020202"/>
<path d="M135.598 71.9999H192.214C195.309 71.9999 197.006 70.3809 197.006 67.4285C197.006 64.4761 195.309 62.8571 192.214 62.8571H135.598C132.503 62.8571 130.806 64.4761 130.806 67.4285C130.806 70.3809 132.503 71.9999 135.598 71.9999Z" fill="#020202"/>
<path d="M135.598 84.5721H192.214C195.309 84.5721 197.006 82.953 197.006 80.0006C197.006 77.0482 195.309 75.4292 192.214 75.4292H135.598C132.503 75.4292 130.806 77.0482 130.806 80.0006C130.806 82.953 132.503 84.5721 135.598 84.5721Z" fill="#020202"/>
<path d="M118.025 97.1441H144.685C147.78 97.1441 149.478 95.525 149.478 92.5727C149.478 89.6203 147.78 88.0012 144.685 88.0012H118.025C114.929 88.0012 113.232 89.6203 113.232 92.5727C113.232 95.525 114.929 97.1441 118.025 97.1441Z" fill="#020202"/>
<path d="M130.806 105.145C130.806 108.097 132.503 109.716 135.598 109.716H192.214C195.309 109.716 197.006 108.097 197.006 105.145C197.006 102.192 195.309 100.573 192.214 100.573H135.598C132.503 100.573 130.806 102.192 130.806 105.145Z" fill="#020202"/>
<path d="M179.031 29.7146C179.031 32.667 180.729 34.286 183.824 34.286H238.243C241.338 34.286 243.035 32.667 243.035 29.7146C243.035 26.7622 241.338 25.1432 238.243 25.1432H183.824C180.729 25.1432 179.031 26.7622 179.031 29.7146Z" fill="#020202"/>
<path d="M192.212 97.1441C195.307 97.1441 197.005 95.525 197.005 92.5727C197.005 89.6203 195.307 88.0012 192.212 88.0012H159.162C156.066 88.0012 154.369 89.6203 154.369 92.5727C154.369 95.525 156.066 97.1441 159.162 97.1441H192.212Z" fill="#020202"/>
<path d="M207.191 117.714C207.191 114.762 205.493 113.143 202.398 113.143H183.027C179.932 113.143 178.234 114.762 178.234 117.714C178.234 120.667 179.932 122.286 183.027 122.286H202.398C205.493 122.286 207.191 120.667 207.191 117.714Z" fill="#020202"/>
<path d="M205.593 138.287H172.543C169.447 138.287 167.75 139.906 167.75 142.859C167.75 145.811 169.447 147.43 172.543 147.43H205.593C208.688 147.43 210.386 145.811 210.386 142.859C210.386 139.906 208.688 138.287 205.593 138.287Z" fill="#020202"/>
<path d="M192.212 150.857H159.162C156.066 150.857 154.369 152.476 154.369 155.428C154.369 158.381 156.066 160 159.162 160H192.212C195.307 160 197.005 158.381 197.005 155.428C197.005 152.476 195.307 150.857 192.212 150.857Z" fill="#020202"/>
<path d="M202.997 67.4285C202.997 70.3809 204.695 71.9999 207.79 71.9999H244.435C247.53 71.9999 249.228 70.3809 249.228 67.4285C249.228 64.4761 247.53 62.8571 244.435 62.8571H207.79C204.695 62.8571 202.997 64.4761 202.997 67.4285Z" fill="#020202"/>
<path d="M259.513 80.0006C259.513 77.0482 257.815 75.4292 254.72 75.4292H218.075C214.979 75.4292 213.282 77.0482 213.282 80.0006C213.282 82.953 214.979 84.5721 218.075 84.5721H254.72C257.815 84.5721 259.513 82.953 259.513 80.0006Z" fill="#020202"/>
<path d="M269.795 92.5727C269.795 89.6203 268.098 88.0012 265.002 88.0012H228.357C225.262 88.0012 223.564 89.6203 223.564 92.5727C223.564 95.525 225.262 97.1441 228.357 97.1441H265.002C268.098 97.1441 269.795 95.525 269.795 92.5727Z" fill="#020202"/>
<path d="M318.422 105.145C318.422 102.192 316.725 100.573 313.63 100.573H238.642C235.547 100.573 233.849 102.192 233.849 105.145C233.849 108.097 235.547 109.716 238.642 109.716H313.63C316.725 109.716 318.422 108.097 318.422 105.145Z" fill="#020202"/>
<path d="M318.423 117.714C318.423 114.762 316.725 113.143 313.63 113.143H249.127C246.031 113.143 244.334 114.762 244.334 117.714C244.334 120.667 246.031 122.286 249.127 122.286H313.63C316.725 122.286 318.423 120.667 318.423 117.714Z" fill="#020202"/>
<path d="M313.631 138.287H269.796C266.701 138.287 265.004 139.906 265.004 142.859C265.004 145.811 266.701 147.43 269.796 147.43H313.631C316.726 147.43 318.424 145.811 318.424 142.859C318.424 139.906 316.726 138.287 313.631 138.287Z" fill="#020202"/>
<path d="M313.631 150.857H280.081C276.986 150.857 275.289 152.476 275.289 155.428C275.289 158.381 276.986 160 280.081 160H313.631C316.726 160 318.424 158.381 318.424 155.428C318.424 152.476 316.726 150.857 313.631 150.857Z" fill="#020202"/>
<path d="M280.581 9.1442H313.632C316.727 9.1442 318.424 7.52515 318.424 4.57277C318.424 1.62039 316.727 0.00134277 313.632 0.00134277H280.581C277.486 0.00134277 275.788 1.62039 275.788 4.57277C275.788 7.52515 277.486 9.1442 280.581 9.1442Z" fill="#020202"/>
<path d="M280.581 21.7139H313.632C316.727 21.7139 318.424 20.0949 318.424 17.1425C318.424 14.1901 316.727 12.571 313.632 12.571H280.581C277.486 12.571 275.788 14.1901 275.788 17.1425C275.788 20.0949 277.486 21.7139 280.581 21.7139Z" fill="#020202"/>
<path d="M280.581 34.286H313.632C316.727 34.286 318.424 32.667 318.424 29.7146C318.424 26.7622 316.727 25.1432 313.632 25.1432H280.581C277.486 25.1432 275.788 26.7622 275.788 29.7146C275.788 32.667 277.486 34.286 280.581 34.286Z" fill="#020202"/>
<path d="M280.581 46.8581H400.102C403.197 46.8581 404.895 45.239 404.895 42.2866C404.895 39.3343 403.197 37.7152 400.102 37.7152H280.581C277.486 37.7152 275.788 39.3343 275.788 42.2866C275.788 45.239 277.486 46.8581 280.581 46.8581Z" fill="#020202"/>
<path d="M280.581 59.4302H313.632C316.727 59.4302 318.424 57.8112 318.424 54.8588C318.424 51.9064 316.727 50.2874 313.632 50.2874H280.581C277.486 50.2874 275.788 51.9064 275.788 54.8588C275.788 57.8112 277.486 59.4302 280.581 59.4302Z" fill="#020202"/>
<path d="M280.581 71.9999H313.632C316.727 71.9999 318.424 70.3809 318.424 67.4285C318.424 64.4761 316.727 62.8571 313.632 62.8571H280.581C277.486 62.8571 275.788 64.4761 275.788 67.4285C275.788 70.3809 277.486 71.9999 280.581 71.9999Z" fill="#020202"/>
<path d="M280.581 84.5721H360.861C363.956 84.5721 365.654 82.953 365.654 80.0006C365.654 77.0482 363.956 75.4292 360.861 75.4292H280.581C277.486 75.4292 275.788 77.0482 275.788 80.0006C275.788 82.953 277.486 84.5721 280.581 84.5721Z" fill="#020202"/>
<path d="M280.581 97.1441H313.632C316.727 97.1441 318.424 95.525 318.424 92.5727C318.424 89.6203 316.727 88.0012 313.632 88.0012H280.581C277.486 88.0012 275.788 89.6203 275.788 92.5727C275.788 95.525 277.486 97.1441 280.581 97.1441Z" fill="#020202"/>
<path d="M328.108 9.1442H360.958C364.054 9.1442 365.751 7.52515 365.751 4.57277C365.751 1.62039 364.054 0.00134277 360.958 0.00134277H328.108C325.012 0.00134277 323.315 1.62039 323.315 4.57277C323.315 7.52515 325.012 9.1442 328.108 9.1442Z" fill="#020202"/>
<path d="M328.108 21.7139H360.958C364.054 21.7139 365.751 20.0949 365.751 17.1425C365.751 14.1901 364.054 12.571 360.958 12.571H328.108C325.012 12.571 323.315 14.1901 323.315 17.1425C323.315 20.0949 325.012 21.7139 328.108 21.7139Z" fill="#020202"/>
<path d="M328.108 34.286H354.867C357.963 34.286 359.66 32.667 359.66 29.7146C359.66 26.7622 357.963 25.1432 354.867 25.1432H328.108C325.012 25.1432 323.315 26.7622 323.315 29.7146C323.315 32.667 325.012 34.286 328.108 34.286Z" fill="#020202"/>
<path d="M328.108 59.4302H396.804C399.9 59.4302 401.597 57.8112 401.597 54.8588C401.597 51.9064 399.9 50.2874 396.804 50.2874H328.108C325.012 50.2874 323.315 51.9064 323.315 54.8588C323.315 57.8112 325.012 59.4302 328.108 59.4302Z" fill="#020202"/>
<path d="M328.108 71.9999H396.804C399.9 71.9999 401.597 70.3809 401.597 67.4285C401.597 64.4761 399.9 62.8571 396.804 62.8571H328.108C325.012 62.8571 323.315 64.4761 323.315 67.4285C323.315 70.3809 325.012 71.9999 328.108 71.9999Z" fill="#020202"/>
<path d="M328.108 113.143C325.012 113.143 323.315 114.762 323.315 117.714C323.315 120.667 325.012 122.286 328.108 122.286H360.958C364.054 122.286 365.751 120.667 365.751 117.714C365.751 114.762 364.054 113.143 360.958 113.143H328.108Z" fill="#020202"/>
<path d="M360.861 138.287H328.01C324.915 138.287 323.217 139.906 323.217 142.859C323.217 145.811 324.915 147.43 328.01 147.43H360.861C363.956 147.43 365.654 145.811 365.654 142.859C365.654 139.906 363.956 138.287 360.861 138.287Z" fill="#020202"/>
<path d="M360.861 150.857H328.01C324.915 150.857 323.217 152.476 323.217 155.428C323.217 158.381 324.915 160 328.01 160H360.861C363.956 160 365.654 158.381 365.654 155.428C365.654 152.476 363.956 150.857 360.861 150.857Z" fill="#020202"/>
<path d="M373.14 84.5721H390.714C393.809 84.5721 395.506 82.953 395.506 80.0006C395.506 77.0482 393.809 75.4292 390.714 75.4292H373.14C370.045 75.4292 368.347 77.0482 368.347 80.0006C368.347 82.953 370.045 84.5721 373.14 84.5721Z" fill="#020202"/>
<path d="M359.76 88.0012H335.896C332.801 88.0012 331.103 89.6203 331.103 92.5727C331.103 95.525 332.801 97.1441 335.896 97.1441H392.911C396.006 97.1441 397.703 95.525 397.703 92.5727C397.703 89.6203 396.006 88.0012 392.911 88.0012H359.86H359.76Z" fill="#020202"/>
<path d="M401.597 105.145C401.597 102.192 399.9 100.573 396.804 100.573H328.108C325.012 100.573 323.315 102.192 323.315 105.145C323.315 108.097 325.012 109.716 328.108 109.716H396.804C399.9 109.716 401.597 108.097 401.597 105.145Z" fill="#020202"/>
<path d="M373.84 122.286H409.287C412.382 122.286 414.079 120.667 414.079 117.714C414.079 114.762 412.382 113.143 409.287 113.143H373.84C370.744 113.143 369.047 114.762 369.047 117.714C369.047 120.667 370.744 122.286 373.84 122.286Z" fill="#020202"/>
<path d="M363.455 29.7146C363.455 32.667 365.152 34.286 368.247 34.286H506.839C509.935 34.286 511.632 32.667 511.632 29.7146C511.632 26.7622 509.935 25.1432 506.839 25.1432H368.247C365.152 25.1432 363.455 26.7622 363.455 29.7146Z" fill="#020202"/>
<path d="M375.936 21.7139H509.236C512.332 21.7139 514.029 20.0949 514.029 17.1425C514.029 14.1901 512.332 12.571 509.236 12.571H375.936C372.841 12.571 371.143 14.1901 371.143 17.1425C371.143 20.0949 372.841 21.7139 375.936 21.7139Z" fill="#020202"/>
<path d="M499.95 138.287H375.936C372.841 138.287 371.143 139.906 371.143 142.859C371.143 145.811 372.841 147.43 375.936 147.43H499.95C503.045 147.43 504.743 145.811 504.743 142.859C504.743 139.906 503.045 138.287 499.95 138.287Z" fill="#020202"/>
<path d="M393.91 9.1442H491.164C494.259 9.1442 495.956 7.52515 495.956 4.57277C495.956 1.62039 494.259 0.00134277 491.164 0.00134277H393.91C390.814 0.00134277 389.117 1.62039 389.117 4.57277C389.117 7.52515 390.814 9.1442 393.91 9.1442Z" fill="#020202"/>
<path d="M491.264 150.857H394.01C390.914 150.857 389.217 152.476 389.217 155.428C389.217 158.381 390.914 160 394.01 160H491.264C494.359 160 496.057 158.381 496.057 155.428C496.057 152.476 494.359 150.857 491.264 150.857Z" fill="#020202"/>
<path d="M484.774 122.286H520.221C523.317 122.286 525.014 120.667 525.014 117.714C525.014 114.762 523.317 113.143 520.221 113.143H484.774C481.679 113.143 479.982 114.762 479.982 117.714C479.982 120.667 481.679 122.286 484.774 122.286Z" fill="#020202"/>
<path d="M515.528 59.4302C518.624 59.4302 520.321 57.8112 520.321 54.8588C520.321 51.9064 518.624 50.2874 515.528 50.2874H482.478C479.383 50.2874 477.685 51.9064 477.685 54.8588C477.685 57.8112 479.383 59.4302 482.478 59.4302H515.528Z" fill="#020202"/>
<path d="M526.511 9.1442H676.386C679.482 9.1442 681.179 7.52515 681.179 4.57277C681.179 1.62039 679.482 0.00134277 676.386 0.00134277H526.511C523.416 0.00134277 521.718 1.62039 521.718 4.57277C521.718 7.52515 523.416 9.1442 526.511 9.1442Z" fill="#020202"/>
<path d="M526.511 21.7139H566.152C569.247 21.7139 570.944 20.0949 570.944 17.1425C570.944 14.1901 569.247 12.571 566.152 12.571H526.511C523.416 12.571 521.718 14.1901 521.718 17.1425C521.718 20.0949 523.416 21.7139 526.511 21.7139Z" fill="#020202"/>
<path d="M554.27 37.7152H521.42C521.42 37.7152 521.02 37.7152 520.82 37.7152C520.621 37.7152 520.421 37.7152 520.221 37.7152H484.774C481.679 37.7152 479.982 39.3343 479.982 42.2866C479.982 45.239 481.679 46.8581 484.774 46.8581H520.221C520.221 46.8581 520.621 46.8581 520.82 46.8581C521.02 46.8581 521.22 46.8581 521.42 46.8581H554.27C557.366 46.8581 559.063 45.239 559.063 42.2866C559.063 39.3343 557.366 37.7152 554.27 37.7152Z" fill="#020202"/>
<path d="M565.851 54.8588C565.851 51.9064 564.154 50.2874 561.059 50.2874H528.208C525.113 50.2874 523.415 51.9064 523.415 54.8588C523.415 57.8112 525.113 59.4302 528.208 59.4302H561.059C564.154 59.4302 565.851 57.8112 565.851 54.8588Z" fill="#020202"/>
<path d="M559.362 62.8571H526.511C523.416 62.8571 521.718 64.4761 521.718 67.4285C521.718 70.3809 523.416 71.9999 526.511 71.9999H559.362C562.457 71.9999 564.155 70.3809 564.155 67.4285C564.155 64.4761 562.457 62.8571 559.362 62.8571Z" fill="#020202"/>
<path d="M559.362 75.4292H526.511C523.416 75.4292 521.718 77.0482 521.718 80.0006C521.718 82.953 523.416 84.5721 526.511 84.5721H559.362C562.457 84.5721 564.155 82.953 564.155 80.0006C564.155 77.0482 562.457 75.4292 559.362 75.4292Z" fill="#020202"/>
<path d="M564.155 92.5727C564.155 89.6203 562.457 88.0012 559.362 88.0012H526.511C523.416 88.0012 521.718 89.6203 521.718 92.5727C521.718 95.525 523.416 97.1441 526.511 97.1441H559.362C562.457 97.1441 564.155 95.525 564.155 92.5727Z" fill="#020202"/>
<path d="M560.659 105.145C560.659 102.192 558.962 100.573 555.866 100.573H523.016C523.016 100.573 522.416 100.573 522.117 100.669C521.817 100.669 521.518 100.573 521.218 100.573H488.168C485.072 100.573 483.375 102.192 483.375 105.145C483.375 108.097 485.072 109.716 488.168 109.716H521.218C521.218 109.716 521.817 109.716 522.117 109.621C522.416 109.621 522.716 109.716 523.016 109.716H555.866C558.962 109.716 560.659 108.097 560.659 105.145Z" fill="#020202"/>
<path d="M565.951 113.143H533.1C530.005 113.143 528.308 114.762 528.308 117.714C528.308 120.667 530.005 122.286 533.1 122.286H565.951C569.047 122.286 570.744 120.667 570.744 117.714C570.744 114.762 569.047 113.143 565.951 113.143Z" fill="#020202"/>
<path d="M549.876 134.858C552.971 134.858 554.669 133.239 554.669 130.287C554.669 127.334 552.971 125.715 549.876 125.715H517.025C517.025 125.715 516.925 125.715 516.826 125.715C516.826 125.715 516.726 125.715 516.626 125.715H259.512C256.416 125.715 254.719 127.334 254.719 130.287C254.719 133.239 256.416 134.858 259.512 134.858H516.626C516.626 134.858 516.726 134.858 516.826 134.858C516.826 134.858 516.925 134.858 517.025 134.858H549.876Z" fill="#020202"/>
<path d="M559.362 138.287H526.511C523.416 138.287 521.718 139.906 521.718 142.859C521.718 145.811 523.416 147.43 526.511 147.43H559.362C562.457 147.43 564.155 145.811 564.155 142.859C564.155 139.906 562.457 138.287 559.362 138.287Z" fill="#020202"/>
<path d="M559.362 150.857H526.511C523.416 150.857 521.718 152.476 521.718 155.428C521.718 158.381 523.416 160 526.511 160H559.362C562.457 160 564.155 158.381 564.155 155.428C564.155 152.476 562.457 150.857 559.362 150.857Z" fill="#020202"/>
<path d="M676.387 12.571H579.932C576.837 12.571 575.139 14.1901 575.139 17.1425C575.139 20.0949 576.837 21.7139 579.932 21.7139H676.387C679.483 21.7139 681.18 20.0949 681.18 17.1425C681.18 14.1901 679.483 12.571 676.387 12.571Z" fill="#020202"/>
<path d="M676.387 34.286C679.482 34.286 681.18 32.667 681.18 29.7146C681.18 26.7622 679.482 25.1432 676.387 25.1432H522.518C519.423 25.1432 517.725 26.7622 517.725 29.7146C517.725 32.667 519.423 34.286 522.518 34.286H676.387Z" fill="#020202"/>
<path d="M590.117 46.8581H623.467C626.562 46.8581 628.26 45.239 628.26 42.2866C628.26 39.3343 626.562 37.7152 623.467 37.7152H590.117C587.021 37.7152 585.324 39.3343 585.324 42.2866C585.324 45.239 587.021 46.8581 590.117 46.8581Z" fill="#020202"/>
<path d="M590.117 59.4302H623.467C626.562 59.4302 628.26 57.8112 628.26 54.8588C628.26 51.9064 626.562 50.2874 623.467 50.2874H590.117C587.021 50.2874 585.324 51.9064 585.324 54.8588C585.324 57.8112 587.021 59.4302 590.117 59.4302Z" fill="#020202"/>
<path d="M625.763 62.8571H592.413C589.318 62.8571 587.62 64.4761 587.62 67.4285C587.62 70.3809 589.318 71.9999 592.413 71.9999H625.763C628.859 71.9999 630.556 70.3809 630.556 67.4285C630.556 64.4761 628.859 62.8571 625.763 62.8571Z" fill="#020202"/>
<path d="M590.117 84.5721H623.467C626.562 84.5721 628.26 82.953 628.26 80.0006C628.26 77.0482 626.562 75.4292 623.467 75.4292H590.117C587.021 75.4292 585.324 77.0482 585.324 80.0006C585.324 82.953 587.021 84.5721 590.117 84.5721Z" fill="#020202"/>
<path d="M621.967 97.1441C625.063 97.1441 626.76 95.525 626.76 92.5727C626.76 89.6203 625.063 88.0012 621.967 88.0012H588.618C585.522 88.0012 583.825 89.6203 583.825 92.5727C583.825 95.525 585.522 97.1441 588.618 97.1441H621.967Z" fill="#020202"/>
<path d="M623.467 100.573H590.117C587.021 100.573 585.324 102.192 585.324 105.145C585.324 108.097 587.021 109.716 590.117 109.716H623.467C626.562 109.716 628.26 108.097 628.26 105.145C628.26 102.192 626.562 100.573 623.467 100.573Z" fill="#020202"/>
<path d="M623.467 113.143H590.117C587.021 113.143 585.324 114.762 585.324 117.714C585.324 120.667 587.021 122.286 590.117 122.286H623.467C626.562 122.286 628.26 120.667 628.26 117.714C628.26 114.762 626.562 113.143 623.467 113.143Z" fill="#020202"/>
<path d="M625.663 125.715H590.117C587.021 125.715 585.324 127.334 585.324 130.287C585.324 133.239 587.021 134.858 590.117 134.858H625.663C628.759 134.858 630.456 133.239 630.456 130.287C630.456 127.334 628.759 125.715 625.663 125.715Z" fill="#020202"/>
<path d="M623.467 138.287H590.117C587.021 138.287 585.324 139.906 585.324 142.859C585.324 145.811 587.021 147.43 590.117 147.43H623.467C626.562 147.43 628.26 145.811 628.26 142.859C628.26 139.906 626.562 138.287 623.467 138.287Z" fill="#020202"/>
<path d="M623.467 150.857H590.117C587.021 150.857 585.324 152.476 585.324 155.428C585.324 158.381 587.021 160 590.117 160H623.467C626.562 160 628.26 158.381 628.26 155.428C628.26 152.476 626.562 150.857 623.467 150.857Z" fill="#020202"/>
<path d="M689.367 42.2866C689.367 39.3343 687.67 37.7152 684.575 37.7152H646.931C643.836 37.7152 642.138 39.3343 642.138 42.2866C642.138 45.239 643.836 46.8581 646.931 46.8581H684.575C687.67 46.8581 689.367 45.239 689.367 42.2866Z" fill="#020202"/>
<path d="M686.67 59.4302C689.766 59.4302 691.463 57.8112 691.463 54.8588C691.463 51.9064 689.766 50.2874 686.67 50.2874H655.917C652.821 50.2874 651.124 51.9064 651.124 54.8588C651.124 57.8112 652.821 59.4302 655.917 59.4302H686.67Z" fill="#020202"/>
<path d="M698.852 67.4285C698.852 64.4761 697.154 62.8571 694.059 62.8571H657.613C654.518 62.8571 652.821 64.4761 652.821 67.4285C652.821 70.3809 654.518 71.9999 657.613 71.9999H694.059C697.154 71.9999 698.852 70.3809 698.852 67.4285Z" fill="#020202"/>
<path d="M747.48 75.4292H671.294C668.198 75.4292 666.501 77.0482 666.501 80.0006C666.501 82.953 668.198 84.5721 671.294 84.5721H747.48C750.575 84.5721 752.272 82.953 752.272 80.0006C752.272 77.0482 750.575 75.4292 747.48 75.4292Z" fill="#020202"/>
<path d="M739.591 88.0012H673.49C670.395 88.0012 668.698 89.6203 668.698 92.5727C668.698 95.525 670.395 97.1441 673.49 97.1441H739.591C742.687 97.1441 744.384 95.525 744.384 92.5727C744.384 89.6203 742.687 88.0012 739.591 88.0012Z" fill="#020202"/>
<path d="M731.703 100.573H681.379C678.284 100.573 676.586 102.192 676.586 105.145C676.586 108.097 678.284 109.716 681.379 109.716H731.703C734.799 109.716 736.496 108.097 736.496 105.145C736.496 102.192 734.799 100.573 731.703 100.573Z" fill="#020202"/>
<path d="M728.309 117.714C728.309 114.762 726.611 113.143 723.516 113.143H689.467C686.372 113.143 684.674 114.762 684.674 117.714C684.674 120.667 686.372 122.286 689.467 122.286H723.516C726.611 122.286 728.309 120.667 728.309 117.714Z" fill="#020202"/>
<path d="M718.923 125.715H689.967C686.871 125.715 685.174 127.334 685.174 130.287C685.174 133.239 686.871 134.858 689.967 134.858H718.923C722.019 134.858 723.716 133.239 723.716 130.287C723.716 127.334 722.019 125.715 718.923 125.715Z" fill="#020202"/>
<path d="M725.214 138.287H692.163C689.068 138.287 687.371 139.906 687.371 142.859C687.371 145.811 689.068 147.43 692.163 147.43H725.214C728.309 147.43 730.007 145.811 730.007 142.859C730.007 139.906 728.309 138.287 725.214 138.287Z" fill="#020202"/>
<path d="M723.017 150.857H689.967C686.871 150.857 685.174 152.476 685.174 155.428C685.174 158.381 686.871 160 689.967 160H723.017C726.113 160 727.81 158.381 727.81 155.428C727.81 152.476 726.113 150.857 723.017 150.857Z" fill="#020202"/>
<path d="M754.07 62.8571H721.819C718.723 62.8571 717.026 64.4761 717.026 67.4285C717.026 70.3809 718.723 71.9999 721.819 71.9999H754.07C757.166 71.9999 758.863 70.3809 758.863 67.4285C758.863 64.4761 757.166 62.8571 754.07 62.8571Z" fill="#020202"/>
<path d="M763.356 50.2874H728.908C725.812 50.2874 724.115 51.9064 724.115 54.8588C724.115 57.8112 725.812 59.4302 728.908 59.4302H763.356C766.451 59.4302 768.149 57.8112 768.149 54.8588C768.149 51.9064 766.451 50.2874 763.356 50.2874Z" fill="#020202"/>
<path d="M759.063 37.7152H734.1C731.005 37.7152 729.307 39.3343 729.307 42.2866C729.307 45.239 731.005 46.8581 734.1 46.8581H759.063C762.158 46.8581 763.855 45.239 763.855 42.2866C763.855 39.3343 762.158 37.7152 759.063 37.7152Z" fill="#020202"/>
<path d="M781.329 25.1432H743.685C740.59 25.1432 738.892 26.7622 738.892 29.7146C738.892 32.667 740.59 34.286 743.685 34.286H781.329C784.424 34.286 786.121 32.667 786.121 29.7146C786.121 26.7622 784.424 25.1432 781.329 25.1432Z" fill="#020202"/>
<path d="M785.123 12.571H748.878C745.782 12.571 744.085 14.1901 744.085 17.1425C744.085 20.0949 745.782 21.7139 748.878 21.7139H785.123C788.219 21.7139 789.916 20.0949 789.916 17.1425C789.916 14.1901 788.219 12.571 785.123 12.571Z" fill="#020202"/>
<path d="M789.018 0.00134277H756.866C753.771 0.00134277 752.073 1.62039 752.073 4.57277C752.073 7.52515 753.771 9.1442 756.866 9.1442H789.018C792.113 9.1442 793.811 7.52515 793.811 4.57277C793.811 1.62039 792.113 0.00134277 789.018 0.00134277Z" fill="#020202"/>
</svg>
